<?xml version="1.0" standalone="no"?>
<!DOCTYPE svg PUBLIC "-//W3C//DTD SVG 20010904//EN"
 "http://www.w3.org/TR/2001/REC-SVG-20010904/DTD/svg10.dtd">
<svg version="1.0" xmlns="http://www.w3.org/2000/svg"
 width="385.000000pt" height="385.000000pt" viewBox="0 0 385.000000 385.000000"
 preserveAspectRatio="xMidYMid meet">
<metadata>
Created by potrace 1.14, written by Peter Selinger 2001-2017
</metadata>
<g transform="translate(0.000000,385.000000) scale(0.100000,-0.100000)"
fill="#000000" stroke="none">
<path d="M2575 3829 c-22 -4 -60 -9 -85 -12 -41 -5 -170 -23 -230 -32 -14 -2
-45 -7 -70 -10 -25 -3 -56 -8 -70 -10 -14 -2 -45 -6 -70 -10 -25 -3 -63 -8
-85 -12 -22 -3 -51 -7 -65 -9 -35 -4 -123 -16 -140 -19 -29 -5 -95 -15 -140
-20 -25 -3 -56 -8 -70 -10 -14 -2 -45 -7 -70 -10 -25 -3 -56 -8 -70 -10 -14
-2 -43 -7 -65 -9 -22 -3 -105 -15 -185 -26 -80 -12 -163 -23 -185 -26 -22 -3
-51 -7 -65 -9 -14 -2 -43 -6 -65 -9 -357 -49 -401 -57 -462 -87 -120 -58 -225
-191 -256 -325 -19 -79 -25 -2464 -7 -2523 38 -122 94 -185 235 -260 55 -30
118 -64 140 -76 258 -143 515 -279 547 -291 37 -13 224 -14 245 -1 4 3 31 8
58 11 28 4 131 18 230 32 176 25 211 29 278 38 17 3 82 12 142 21 61 8 128 18
150 21 41 5 58 8 135 19 25 4 56 8 70 10 106 15 189 27 211 31 15 2 47 6 70 9
78 9 124 16 149 20 14 3 45 7 69 10 23 3 55 7 70 9 14 3 46 8 71 11 25 3 56 8
70 10 14 2 77 11 140 20 63 8 131 18 150 21 156 24 317 189 359 369 14 60 22
2397 8 2484 -10 69 -48 145 -95 194 -36 37 -64 55 -207 132 -124 67 -199 107
-245 133 -25 13 -79 43 -120 65 -41 22 -106 57 -143 78 -37 21 -89 46 -114 54
-47 16 -142 18 -218 4z"/>
</g>
</svg>
